<mxfile host="Electron" modified="2023-05-25T21:52:04.777Z" agent="Mozilla/5.0 (Windows NT 10.0; Win64; x64) AppleWebKit/537.36 (KHTML, like Gecko) draw.io/21.2.1 Chrome/112.0.5615.87 Electron/24.1.2 Safari/537.36" etag="C6fNo-ecbHeJpXmmuY4e" version="21.2.1" type="device" pages="3">
  <diagram name="pixels" id="x06BZ69AnIO537M7gJAx">
    <mxGraphModel dx="780" dy="496" grid="1" gridSize="10" guides="1" tooltips="1" connect="1" arrows="1" fold="1" page="1" pageScale="1" pageWidth="827" pageHeight="1169" math="0" shadow="0">
      <root>
        <mxCell id="fnO5ElZvCGnvlZlt09fh-0" />
        <mxCell id="fnO5ElZvCGnvlZlt09fh-1" parent="fnO5ElZvCGnvlZlt09fh-0" />
        <mxCell id="fnO5ElZvCGnvlZlt09fh-2" value="" style="rounded=0;whiteSpace=wrap;html=1;strokeWidth=4;perimeterSpacing=0;" parent="fnO5ElZvCGnvlZlt09fh-1" vertex="1">
          <mxGeometry x="240" y="240" width="120" height="40" as="geometry" />
        </mxCell>
        <mxCell id="fnO5ElZvCGnvlZlt09fh-3" value="1" style="rounded=0;whiteSpace=wrap;html=1;fillColor=#e51400;fontColor=#ffffff;strokeColor=#B20000;" parent="fnO5ElZvCGnvlZlt09fh-1" vertex="1">
          <mxGeometry x="240" y="240" width="40" height="40" as="geometry" />
        </mxCell>
        <mxCell id="fnO5ElZvCGnvlZlt09fh-5" value="" style="rounded=0;whiteSpace=wrap;html=1;fillColor=#60a917;fontColor=#ffffff;strokeColor=#2D7600;" parent="fnO5ElZvCGnvlZlt09fh-1" vertex="1">
          <mxGeometry x="280" y="240" width="40" height="40" as="geometry" />
        </mxCell>
        <mxCell id="fnO5ElZvCGnvlZlt09fh-7" value="" style="rounded=0;whiteSpace=wrap;html=1;fillColor=#0050ef;fontColor=#ffffff;strokeColor=#001DBC;" parent="fnO5ElZvCGnvlZlt09fh-1" vertex="1">
          <mxGeometry x="320" y="240" width="40" height="40" as="geometry" />
        </mxCell>
        <mxCell id="fnO5ElZvCGnvlZlt09fh-9" value="" style="rounded=0;whiteSpace=wrap;html=1;strokeWidth=4;perimeterSpacing=0;" parent="fnO5ElZvCGnvlZlt09fh-1" vertex="1">
          <mxGeometry x="240" y="280" width="120" height="40" as="geometry" />
        </mxCell>
        <mxCell id="fnO5ElZvCGnvlZlt09fh-10" value="2" style="rounded=0;whiteSpace=wrap;html=1;fillColor=#e51400;fontColor=#ffffff;strokeColor=#B20000;" parent="fnO5ElZvCGnvlZlt09fh-1" vertex="1">
          <mxGeometry x="240" y="280" width="40" height="40" as="geometry" />
        </mxCell>
        <mxCell id="fnO5ElZvCGnvlZlt09fh-12" value="" style="rounded=0;whiteSpace=wrap;html=1;fillColor=#60a917;fontColor=#ffffff;strokeColor=#2D7600;" parent="fnO5ElZvCGnvlZlt09fh-1" vertex="1">
          <mxGeometry x="280" y="280" width="40" height="40" as="geometry" />
        </mxCell>
        <mxCell id="fnO5ElZvCGnvlZlt09fh-14" value="" style="rounded=0;whiteSpace=wrap;html=1;fillColor=#0050ef;fontColor=#ffffff;strokeColor=#001DBC;" parent="fnO5ElZvCGnvlZlt09fh-1" vertex="1">
          <mxGeometry x="320" y="280" width="40" height="40" as="geometry" />
        </mxCell>
        <mxCell id="fnO5ElZvCGnvlZlt09fh-16" value="" style="rounded=0;whiteSpace=wrap;html=1;strokeWidth=4;perimeterSpacing=0;" parent="fnO5ElZvCGnvlZlt09fh-1" vertex="1">
          <mxGeometry x="240" y="320" width="120" height="40" as="geometry" />
        </mxCell>
        <mxCell id="fnO5ElZvCGnvlZlt09fh-17" value="3" style="rounded=0;whiteSpace=wrap;html=1;fillColor=#e51400;fontColor=#ffffff;strokeColor=#B20000;" parent="fnO5ElZvCGnvlZlt09fh-1" vertex="1">
          <mxGeometry x="240" y="320" width="40" height="40" as="geometry" />
        </mxCell>
        <mxCell id="fnO5ElZvCGnvlZlt09fh-19" value="" style="rounded=0;whiteSpace=wrap;html=1;fillColor=#60a917;fontColor=#ffffff;strokeColor=#2D7600;" parent="fnO5ElZvCGnvlZlt09fh-1" vertex="1">
          <mxGeometry x="280" y="320" width="40" height="40" as="geometry" />
        </mxCell>
        <mxCell id="fnO5ElZvCGnvlZlt09fh-21" value="" style="rounded=0;whiteSpace=wrap;html=1;fillColor=#0050ef;fontColor=#ffffff;strokeColor=#001DBC;" parent="fnO5ElZvCGnvlZlt09fh-1" vertex="1">
          <mxGeometry x="320" y="320" width="40" height="40" as="geometry" />
        </mxCell>
        <mxCell id="fnO5ElZvCGnvlZlt09fh-23" value="" style="rounded=0;whiteSpace=wrap;html=1;strokeWidth=4;perimeterSpacing=0;" parent="fnO5ElZvCGnvlZlt09fh-1" vertex="1">
          <mxGeometry x="240" y="360" width="120" height="40" as="geometry" />
        </mxCell>
        <mxCell id="fnO5ElZvCGnvlZlt09fh-24" value="4" style="rounded=0;whiteSpace=wrap;html=1;fillColor=#e51400;fontColor=#ffffff;strokeColor=#B20000;" parent="fnO5ElZvCGnvlZlt09fh-1" vertex="1">
          <mxGeometry x="240" y="360" width="40" height="40" as="geometry" />
        </mxCell>
        <mxCell id="fnO5ElZvCGnvlZlt09fh-26" value="" style="rounded=0;whiteSpace=wrap;html=1;fillColor=#60a917;fontColor=#ffffff;strokeColor=#2D7600;" parent="fnO5ElZvCGnvlZlt09fh-1" vertex="1">
          <mxGeometry x="280" y="360" width="40" height="40" as="geometry" />
        </mxCell>
        <mxCell id="fnO5ElZvCGnvlZlt09fh-28" value="" style="rounded=0;whiteSpace=wrap;html=1;fillColor=#0050ef;fontColor=#ffffff;strokeColor=#001DBC;" parent="fnO5ElZvCGnvlZlt09fh-1" vertex="1">
          <mxGeometry x="320" y="360" width="40" height="40" as="geometry" />
        </mxCell>
        <mxCell id="fnO5ElZvCGnvlZlt09fh-30" value="" style="rounded=0;whiteSpace=wrap;html=1;strokeWidth=4;perimeterSpacing=0;" parent="fnO5ElZvCGnvlZlt09fh-1" vertex="1">
          <mxGeometry x="240" y="400" width="120" height="40" as="geometry" />
        </mxCell>
        <mxCell id="fnO5ElZvCGnvlZlt09fh-31" value="5" style="rounded=0;whiteSpace=wrap;html=1;fillColor=#e51400;fontColor=#ffffff;strokeColor=#B20000;" parent="fnO5ElZvCGnvlZlt09fh-1" vertex="1">
          <mxGeometry x="240" y="400" width="40" height="40" as="geometry" />
        </mxCell>
        <mxCell id="fnO5ElZvCGnvlZlt09fh-33" value="" style="rounded=0;whiteSpace=wrap;html=1;fillColor=#60a917;fontColor=#ffffff;strokeColor=#2D7600;" parent="fnO5ElZvCGnvlZlt09fh-1" vertex="1">
          <mxGeometry x="280" y="400" width="40" height="40" as="geometry" />
        </mxCell>
        <mxCell id="fnO5ElZvCGnvlZlt09fh-35" value="" style="rounded=0;whiteSpace=wrap;html=1;fillColor=#0050ef;fontColor=#ffffff;strokeColor=#001DBC;" parent="fnO5ElZvCGnvlZlt09fh-1" vertex="1">
          <mxGeometry x="320" y="400" width="40" height="40" as="geometry" />
        </mxCell>
        <mxCell id="sBM95dpn9P4X4wt-7vl6-0" value="" style="rounded=0;whiteSpace=wrap;html=1;strokeWidth=4;perimeterSpacing=0;" parent="fnO5ElZvCGnvlZlt09fh-1" vertex="1">
          <mxGeometry x="240" y="440" width="120" height="40" as="geometry" />
        </mxCell>
        <mxCell id="sBM95dpn9P4X4wt-7vl6-1" value="6" style="rounded=0;whiteSpace=wrap;html=1;fillColor=#e51400;fontColor=#ffffff;strokeColor=#B20000;" parent="fnO5ElZvCGnvlZlt09fh-1" vertex="1">
          <mxGeometry x="240" y="440" width="40" height="40" as="geometry" />
        </mxCell>
        <mxCell id="sBM95dpn9P4X4wt-7vl6-3" value="" style="rounded=0;whiteSpace=wrap;html=1;fillColor=#60a917;fontColor=#ffffff;strokeColor=#2D7600;" parent="fnO5ElZvCGnvlZlt09fh-1" vertex="1">
          <mxGeometry x="280" y="440" width="40" height="40" as="geometry" />
        </mxCell>
        <mxCell id="sBM95dpn9P4X4wt-7vl6-5" value="" style="rounded=0;whiteSpace=wrap;html=1;fillColor=#0050ef;fontColor=#ffffff;strokeColor=#001DBC;" parent="fnO5ElZvCGnvlZlt09fh-1" vertex="1">
          <mxGeometry x="320" y="440" width="40" height="40" as="geometry" />
        </mxCell>
      </root>
    </mxGraphModel>
  </diagram>
  <diagram name="offset" id="e_KbqvrRuU0hyUjIvGe4">
    <mxGraphModel dx="538" dy="342" grid="1" gridSize="10" guides="1" tooltips="1" connect="1" arrows="1" fold="1" page="1" pageScale="1" pageWidth="827" pageHeight="1169" math="0" shadow="0">
      <root>
        <mxCell id="0" />
        <mxCell id="1" parent="0" />
        <mxCell id="iA2zVwpiQb8LA--zocp--25" value="" style="rounded=0;whiteSpace=wrap;html=1;strokeWidth=4;perimeterSpacing=0;" vertex="1" parent="1">
          <mxGeometry x="250" y="250" width="120" height="40" as="geometry" />
        </mxCell>
        <mxCell id="iA2zVwpiQb8LA--zocp--26" value="1" style="rounded=0;whiteSpace=wrap;html=1;fillColor=#e51400;fontColor=#ffffff;strokeColor=#B20000;" vertex="1" parent="1">
          <mxGeometry x="250" y="250" width="40" height="40" as="geometry" />
        </mxCell>
        <mxCell id="iA2zVwpiQb8LA--zocp--27" value="" style="rounded=0;whiteSpace=wrap;html=1;fillColor=#60a917;fontColor=#ffffff;strokeColor=#2D7600;" vertex="1" parent="1">
          <mxGeometry x="290" y="250" width="40" height="40" as="geometry" />
        </mxCell>
        <mxCell id="iA2zVwpiQb8LA--zocp--28" value="" style="rounded=0;whiteSpace=wrap;html=1;fillColor=#0050ef;fontColor=#ffffff;strokeColor=#001DBC;" vertex="1" parent="1">
          <mxGeometry x="330" y="250" width="40" height="40" as="geometry" />
        </mxCell>
        <mxCell id="iA2zVwpiQb8LA--zocp--29" value="" style="rounded=0;whiteSpace=wrap;html=1;strokeWidth=4;perimeterSpacing=0;" vertex="1" parent="1">
          <mxGeometry x="250" y="290" width="120" height="40" as="geometry" />
        </mxCell>
        <mxCell id="iA2zVwpiQb8LA--zocp--30" value="2" style="rounded=0;whiteSpace=wrap;html=1;fillColor=#e51400;fontColor=#ffffff;strokeColor=#B20000;" vertex="1" parent="1">
          <mxGeometry x="250" y="290" width="40" height="40" as="geometry" />
        </mxCell>
        <mxCell id="iA2zVwpiQb8LA--zocp--31" value="" style="rounded=0;whiteSpace=wrap;html=1;fillColor=#60a917;fontColor=#ffffff;strokeColor=#2D7600;" vertex="1" parent="1">
          <mxGeometry x="290" y="290" width="40" height="40" as="geometry" />
        </mxCell>
        <mxCell id="iA2zVwpiQb8LA--zocp--32" value="" style="rounded=0;whiteSpace=wrap;html=1;fillColor=#0050ef;fontColor=#ffffff;strokeColor=#001DBC;" vertex="1" parent="1">
          <mxGeometry x="330" y="290" width="40" height="40" as="geometry" />
        </mxCell>
        <mxCell id="iA2zVwpiQb8LA--zocp--33" value="" style="rounded=0;whiteSpace=wrap;html=1;strokeWidth=4;perimeterSpacing=0;" vertex="1" parent="1">
          <mxGeometry x="250" y="330" width="120" height="40" as="geometry" />
        </mxCell>
        <mxCell id="iA2zVwpiQb8LA--zocp--34" value="3" style="rounded=0;whiteSpace=wrap;html=1;fillColor=#e51400;fontColor=#ffffff;strokeColor=#B20000;" vertex="1" parent="1">
          <mxGeometry x="250" y="330" width="40" height="40" as="geometry" />
        </mxCell>
        <mxCell id="iA2zVwpiQb8LA--zocp--35" value="" style="rounded=0;whiteSpace=wrap;html=1;fillColor=#60a917;fontColor=#ffffff;strokeColor=#2D7600;" vertex="1" parent="1">
          <mxGeometry x="290" y="330" width="40" height="40" as="geometry" />
        </mxCell>
        <mxCell id="iA2zVwpiQb8LA--zocp--36" value="" style="rounded=0;whiteSpace=wrap;html=1;fillColor=#0050ef;fontColor=#ffffff;strokeColor=#001DBC;" vertex="1" parent="1">
          <mxGeometry x="330" y="330" width="40" height="40" as="geometry" />
        </mxCell>
        <mxCell id="iA2zVwpiQb8LA--zocp--37" value="" style="rounded=0;whiteSpace=wrap;html=1;strokeWidth=4;perimeterSpacing=0;" vertex="1" parent="1">
          <mxGeometry x="250" y="370" width="120" height="40" as="geometry" />
        </mxCell>
        <mxCell id="iA2zVwpiQb8LA--zocp--38" value="4" style="rounded=0;whiteSpace=wrap;html=1;fillColor=#e51400;fontColor=#ffffff;strokeColor=#B20000;" vertex="1" parent="1">
          <mxGeometry x="250" y="370" width="40" height="40" as="geometry" />
        </mxCell>
        <mxCell id="iA2zVwpiQb8LA--zocp--39" value="" style="rounded=0;whiteSpace=wrap;html=1;fillColor=#60a917;fontColor=#ffffff;strokeColor=#2D7600;" vertex="1" parent="1">
          <mxGeometry x="290" y="370" width="40" height="40" as="geometry" />
        </mxCell>
        <mxCell id="iA2zVwpiQb8LA--zocp--40" value="" style="rounded=0;whiteSpace=wrap;html=1;fillColor=#0050ef;fontColor=#ffffff;strokeColor=#001DBC;" vertex="1" parent="1">
          <mxGeometry x="330" y="370" width="40" height="40" as="geometry" />
        </mxCell>
        <mxCell id="iA2zVwpiQb8LA--zocp--41" value="" style="rounded=0;whiteSpace=wrap;html=1;strokeWidth=4;perimeterSpacing=0;" vertex="1" parent="1">
          <mxGeometry x="250" y="410" width="120" height="40" as="geometry" />
        </mxCell>
        <mxCell id="iA2zVwpiQb8LA--zocp--42" value="5" style="rounded=0;whiteSpace=wrap;html=1;fillColor=#e51400;fontColor=#ffffff;strokeColor=#B20000;" vertex="1" parent="1">
          <mxGeometry x="250" y="410" width="40" height="40" as="geometry" />
        </mxCell>
        <mxCell id="iA2zVwpiQb8LA--zocp--43" value="" style="rounded=0;whiteSpace=wrap;html=1;fillColor=#60a917;fontColor=#ffffff;strokeColor=#2D7600;" vertex="1" parent="1">
          <mxGeometry x="290" y="410" width="40" height="40" as="geometry" />
        </mxCell>
        <mxCell id="iA2zVwpiQb8LA--zocp--44" value="" style="rounded=0;whiteSpace=wrap;html=1;fillColor=#0050ef;fontColor=#ffffff;strokeColor=#001DBC;" vertex="1" parent="1">
          <mxGeometry x="330" y="410" width="40" height="40" as="geometry" />
        </mxCell>
        <mxCell id="iA2zVwpiQb8LA--zocp--45" value="" style="rounded=0;whiteSpace=wrap;html=1;strokeWidth=4;perimeterSpacing=0;" vertex="1" parent="1">
          <mxGeometry x="250" y="450" width="120" height="40" as="geometry" />
        </mxCell>
        <mxCell id="iA2zVwpiQb8LA--zocp--46" value="6" style="rounded=0;whiteSpace=wrap;html=1;fillColor=#e51400;fontColor=#ffffff;strokeColor=#B20000;" vertex="1" parent="1">
          <mxGeometry x="250" y="450" width="40" height="40" as="geometry" />
        </mxCell>
        <mxCell id="iA2zVwpiQb8LA--zocp--47" value="" style="rounded=0;whiteSpace=wrap;html=1;fillColor=#60a917;fontColor=#ffffff;strokeColor=#2D7600;" vertex="1" parent="1">
          <mxGeometry x="290" y="450" width="40" height="40" as="geometry" />
        </mxCell>
        <mxCell id="iA2zVwpiQb8LA--zocp--48" value="" style="rounded=0;whiteSpace=wrap;html=1;fillColor=#0050ef;fontColor=#ffffff;strokeColor=#001DBC;" vertex="1" parent="1">
          <mxGeometry x="330" y="450" width="40" height="40" as="geometry" />
        </mxCell>
      </root>
    </mxGraphModel>
  </diagram>
  <diagram name="encode" id="_avsyeta7MO8s-Wis8p9">
    <mxGraphModel dx="538" dy="342" grid="1" gridSize="10" guides="1" tooltips="1" connect="1" arrows="1" fold="1" page="1" pageScale="1" pageWidth="827" pageHeight="1169" math="0" shadow="0">
      <root>
        <mxCell id="BBIbHL7WTQ6qacQHwo1D-0" />
        <mxCell id="BBIbHL7WTQ6qacQHwo1D-1" parent="BBIbHL7WTQ6qacQHwo1D-0" />
        <mxCell id="BBIbHL7WTQ6qacQHwo1D-2" value="" style="rounded=0;whiteSpace=wrap;html=1;strokeWidth=4;perimeterSpacing=0;" vertex="1" parent="BBIbHL7WTQ6qacQHwo1D-1">
          <mxGeometry x="240" y="160" width="240" height="40" as="geometry" />
        </mxCell>
        <mxCell id="BBIbHL7WTQ6qacQHwo1D-3" value="1" style="rounded=0;whiteSpace=wrap;html=1;fillColor=#e51400;fontColor=#ffffff;strokeColor=#B20000;" vertex="1" parent="BBIbHL7WTQ6qacQHwo1D-1">
          <mxGeometry x="240" y="160" width="40" height="40" as="geometry" />
        </mxCell>
        <mxCell id="BBIbHL7WTQ6qacQHwo1D-4" value="" style="rounded=0;whiteSpace=wrap;html=1;fillColor=#e51400;fontColor=#ffffff;strokeColor=#B20000;" vertex="1" parent="BBIbHL7WTQ6qacQHwo1D-1">
          <mxGeometry x="280" y="160" width="40" height="40" as="geometry" />
        </mxCell>
        <mxCell id="BBIbHL7WTQ6qacQHwo1D-5" value="" style="rounded=0;whiteSpace=wrap;html=1;fillColor=#60a917;fontColor=#ffffff;strokeColor=#2D7600;" vertex="1" parent="BBIbHL7WTQ6qacQHwo1D-1">
          <mxGeometry x="320" y="160" width="40" height="40" as="geometry" />
        </mxCell>
        <mxCell id="BBIbHL7WTQ6qacQHwo1D-6" value="" style="rounded=0;whiteSpace=wrap;html=1;fillColor=#60a917;fontColor=#ffffff;strokeColor=#2D7600;" vertex="1" parent="BBIbHL7WTQ6qacQHwo1D-1">
          <mxGeometry x="360" y="160" width="40" height="40" as="geometry" />
        </mxCell>
        <mxCell id="BBIbHL7WTQ6qacQHwo1D-7" value="" style="rounded=0;whiteSpace=wrap;html=1;fillColor=#0050ef;fontColor=#ffffff;strokeColor=#001DBC;" vertex="1" parent="BBIbHL7WTQ6qacQHwo1D-1">
          <mxGeometry x="400" y="160" width="40" height="40" as="geometry" />
        </mxCell>
        <mxCell id="BBIbHL7WTQ6qacQHwo1D-8" value="" style="rounded=0;whiteSpace=wrap;html=1;fillColor=#0050ef;fontColor=#ffffff;strokeColor=#001DBC;" vertex="1" parent="BBIbHL7WTQ6qacQHwo1D-1">
          <mxGeometry x="440" y="160" width="40" height="40" as="geometry" />
        </mxCell>
        <mxCell id="NSiir3A2GUsZpsJYYGo2-1" value="" style="rounded=0;whiteSpace=wrap;html=1;strokeWidth=4;perimeterSpacing=0;" vertex="1" parent="BBIbHL7WTQ6qacQHwo1D-1">
          <mxGeometry x="240" y="200" width="240" height="40" as="geometry" />
        </mxCell>
        <mxCell id="NSiir3A2GUsZpsJYYGo2-2" value="" style="rounded=0;whiteSpace=wrap;html=1;fillColor=#e51400;fontColor=#ffffff;strokeColor=#B20000;" vertex="1" parent="BBIbHL7WTQ6qacQHwo1D-1">
          <mxGeometry x="240" y="200" width="40" height="40" as="geometry" />
        </mxCell>
        <mxCell id="NSiir3A2GUsZpsJYYGo2-3" value="" style="rounded=0;whiteSpace=wrap;html=1;fillColor=#e51400;fontColor=#ffffff;strokeColor=#B20000;" vertex="1" parent="BBIbHL7WTQ6qacQHwo1D-1">
          <mxGeometry x="280" y="200" width="40" height="40" as="geometry" />
        </mxCell>
        <mxCell id="NSiir3A2GUsZpsJYYGo2-4" value="" style="rounded=0;whiteSpace=wrap;html=1;fillColor=#60a917;fontColor=#ffffff;strokeColor=#2D7600;" vertex="1" parent="BBIbHL7WTQ6qacQHwo1D-1">
          <mxGeometry x="320" y="200" width="40" height="40" as="geometry" />
        </mxCell>
        <mxCell id="NSiir3A2GUsZpsJYYGo2-5" value="" style="rounded=0;whiteSpace=wrap;html=1;fillColor=#60a917;fontColor=#ffffff;strokeColor=#2D7600;" vertex="1" parent="BBIbHL7WTQ6qacQHwo1D-1">
          <mxGeometry x="360" y="200" width="40" height="40" as="geometry" />
        </mxCell>
        <mxCell id="NSiir3A2GUsZpsJYYGo2-6" value="" style="rounded=0;whiteSpace=wrap;html=1;fillColor=#0050ef;fontColor=#ffffff;strokeColor=#001DBC;" vertex="1" parent="BBIbHL7WTQ6qacQHwo1D-1">
          <mxGeometry x="400" y="200" width="40" height="40" as="geometry" />
        </mxCell>
        <mxCell id="NSiir3A2GUsZpsJYYGo2-7" value="" style="rounded=0;whiteSpace=wrap;html=1;fillColor=#0050ef;fontColor=#ffffff;strokeColor=#001DBC;" vertex="1" parent="BBIbHL7WTQ6qacQHwo1D-1">
          <mxGeometry x="440" y="200" width="40" height="40" as="geometry" />
        </mxCell>
        <mxCell id="BBIbHL7WTQ6qacQHwo1D-16" value="" style="rounded=0;whiteSpace=wrap;html=1;strokeWidth=4;perimeterSpacing=0;" vertex="1" parent="BBIbHL7WTQ6qacQHwo1D-1">
          <mxGeometry x="240" y="240" width="240" height="40" as="geometry" />
        </mxCell>
        <mxCell id="BBIbHL7WTQ6qacQHwo1D-20" value="" style="rounded=0;whiteSpace=wrap;html=1;fillColor=#60a917;fontColor=#ffffff;strokeColor=#2D7600;fillStyle=auto;" vertex="1" parent="BBIbHL7WTQ6qacQHwo1D-1">
          <mxGeometry x="360" y="240" width="40" height="40" as="geometry" />
        </mxCell>
        <mxCell id="BBIbHL7WTQ6qacQHwo1D-24" value="" style="rounded=0;whiteSpace=wrap;html=1;fillColor=#e51400;fontColor=#ffffff;strokeColor=#B20000;" vertex="1" parent="BBIbHL7WTQ6qacQHwo1D-1">
          <mxGeometry x="240" y="240" width="40" height="40" as="geometry" />
        </mxCell>
        <mxCell id="BBIbHL7WTQ6qacQHwo1D-25" value="" style="rounded=0;whiteSpace=wrap;html=1;fillColor=#e51400;fontColor=#ffffff;strokeColor=#B20000;" vertex="1" parent="BBIbHL7WTQ6qacQHwo1D-1">
          <mxGeometry x="280" y="240" width="40" height="40" as="geometry" />
        </mxCell>
        <mxCell id="BBIbHL7WTQ6qacQHwo1D-14" value="2" style="rounded=0;whiteSpace=wrap;html=1;fillColor=#0050ef;fontColor=#000000;strokeColor=#001DBC;fillStyle=dashed;fontStyle=1;fontSize=16;" vertex="1" parent="BBIbHL7WTQ6qacQHwo1D-1">
          <mxGeometry x="400" y="240" width="40" height="40" as="geometry" />
        </mxCell>
        <mxCell id="BBIbHL7WTQ6qacQHwo1D-15" value="" style="rounded=0;whiteSpace=wrap;html=1;fillColor=#0050ef;fontColor=#ffffff;strokeColor=#001DBC;fillStyle=dots;" vertex="1" parent="BBIbHL7WTQ6qacQHwo1D-1">
          <mxGeometry x="440" y="240" width="40" height="40" as="geometry" />
        </mxCell>
        <mxCell id="BBIbHL7WTQ6qacQHwo1D-12" value="" style="rounded=0;whiteSpace=wrap;html=1;fillColor=#60a917;fontColor=#FFFFFF;strokeColor=#2D7600;fillStyle=auto;fontStyle=0;fontSize=12;" vertex="1" parent="BBIbHL7WTQ6qacQHwo1D-1">
          <mxGeometry x="320" y="240" width="40" height="40" as="geometry" />
        </mxCell>
        <mxCell id="NSiir3A2GUsZpsJYYGo2-8" value="" style="rounded=0;whiteSpace=wrap;html=1;strokeWidth=4;perimeterSpacing=0;" vertex="1" parent="BBIbHL7WTQ6qacQHwo1D-1">
          <mxGeometry x="240" y="280" width="240" height="40" as="geometry" />
        </mxCell>
        <mxCell id="NSiir3A2GUsZpsJYYGo2-9" value="" style="rounded=0;whiteSpace=wrap;html=1;fillColor=#e51400;fontColor=#ffffff;strokeColor=#B20000;fillStyle=dashed;" vertex="1" parent="BBIbHL7WTQ6qacQHwo1D-1">
          <mxGeometry x="240" y="280" width="40" height="40" as="geometry" />
        </mxCell>
        <mxCell id="NSiir3A2GUsZpsJYYGo2-10" value="" style="rounded=0;whiteSpace=wrap;html=1;fillColor=#e51400;fontColor=#ffffff;strokeColor=#B20000;fillStyle=dots;" vertex="1" parent="BBIbHL7WTQ6qacQHwo1D-1">
          <mxGeometry x="280" y="280" width="40" height="40" as="geometry" />
        </mxCell>
        <mxCell id="NSiir3A2GUsZpsJYYGo2-11" value="" style="rounded=0;whiteSpace=wrap;html=1;fillColor=#60a917;fontColor=#ffffff;strokeColor=#2D7600;fillStyle=dashed;" vertex="1" parent="BBIbHL7WTQ6qacQHwo1D-1">
          <mxGeometry x="320" y="280" width="40" height="40" as="geometry" />
        </mxCell>
        <mxCell id="NSiir3A2GUsZpsJYYGo2-12" value="" style="rounded=0;whiteSpace=wrap;html=1;fillColor=#60a917;fontColor=#ffffff;strokeColor=#2D7600;fillStyle=dots;" vertex="1" parent="BBIbHL7WTQ6qacQHwo1D-1">
          <mxGeometry x="360" y="280" width="40" height="40" as="geometry" />
        </mxCell>
        <mxCell id="NSiir3A2GUsZpsJYYGo2-13" value="" style="rounded=0;whiteSpace=wrap;html=1;fillColor=#0050ef;fontColor=#ffffff;strokeColor=#001DBC;fillStyle=dashed;" vertex="1" parent="BBIbHL7WTQ6qacQHwo1D-1">
          <mxGeometry x="400" y="280" width="40" height="40" as="geometry" />
        </mxCell>
        <mxCell id="NSiir3A2GUsZpsJYYGo2-14" value="" style="rounded=0;whiteSpace=wrap;html=1;fillColor=#0050ef;fontColor=#ffffff;strokeColor=#001DBC;fillStyle=dots;" vertex="1" parent="BBIbHL7WTQ6qacQHwo1D-1">
          <mxGeometry x="440" y="280" width="40" height="40" as="geometry" />
        </mxCell>
        <mxCell id="NSiir3A2GUsZpsJYYGo2-15" value="" style="rounded=0;whiteSpace=wrap;html=1;strokeWidth=4;perimeterSpacing=0;" vertex="1" parent="BBIbHL7WTQ6qacQHwo1D-1">
          <mxGeometry x="240" y="320" width="240" height="40" as="geometry" />
        </mxCell>
        <mxCell id="NSiir3A2GUsZpsJYYGo2-16" value="" style="rounded=0;whiteSpace=wrap;html=1;fillColor=#e51400;fontColor=#ffffff;strokeColor=#B20000;fillStyle=dashed;" vertex="1" parent="BBIbHL7WTQ6qacQHwo1D-1">
          <mxGeometry x="240" y="320" width="40" height="40" as="geometry" />
        </mxCell>
        <mxCell id="NSiir3A2GUsZpsJYYGo2-17" value="" style="rounded=0;whiteSpace=wrap;html=1;fillColor=#e51400;fontColor=#ffffff;strokeColor=#B20000;fillStyle=dots;" vertex="1" parent="BBIbHL7WTQ6qacQHwo1D-1">
          <mxGeometry x="280" y="320" width="40" height="40" as="geometry" />
        </mxCell>
        <mxCell id="NSiir3A2GUsZpsJYYGo2-18" value="" style="rounded=0;whiteSpace=wrap;html=1;fillColor=#60a917;fontColor=#ffffff;strokeColor=#2D7600;fillStyle=dashed;" vertex="1" parent="BBIbHL7WTQ6qacQHwo1D-1">
          <mxGeometry x="320" y="320" width="40" height="40" as="geometry" />
        </mxCell>
        <mxCell id="NSiir3A2GUsZpsJYYGo2-19" value="" style="rounded=0;whiteSpace=wrap;html=1;fillColor=#60a917;fontColor=#ffffff;strokeColor=#2D7600;fillStyle=dots;" vertex="1" parent="BBIbHL7WTQ6qacQHwo1D-1">
          <mxGeometry x="360" y="320" width="40" height="40" as="geometry" />
        </mxCell>
        <mxCell id="NSiir3A2GUsZpsJYYGo2-20" value="" style="rounded=0;whiteSpace=wrap;html=1;fillColor=#0050ef;fontColor=#ffffff;strokeColor=#001DBC;fillStyle=dashed;" vertex="1" parent="BBIbHL7WTQ6qacQHwo1D-1">
          <mxGeometry x="400" y="320" width="40" height="40" as="geometry" />
        </mxCell>
        <mxCell id="NSiir3A2GUsZpsJYYGo2-21" value="" style="rounded=0;whiteSpace=wrap;html=1;fillColor=#0050ef;fontColor=#ffffff;strokeColor=#001DBC;fillStyle=dots;" vertex="1" parent="BBIbHL7WTQ6qacQHwo1D-1">
          <mxGeometry x="440" y="320" width="40" height="40" as="geometry" />
        </mxCell>
        <mxCell id="NSiir3A2GUsZpsJYYGo2-22" value="" style="rounded=0;whiteSpace=wrap;html=1;strokeWidth=4;perimeterSpacing=0;" vertex="1" parent="BBIbHL7WTQ6qacQHwo1D-1">
          <mxGeometry x="240" y="360" width="240" height="40" as="geometry" />
        </mxCell>
        <mxCell id="NSiir3A2GUsZpsJYYGo2-23" value="" style="rounded=0;whiteSpace=wrap;html=1;fillColor=#e51400;fontColor=#ffffff;strokeColor=#B20000;fillStyle=dashed;" vertex="1" parent="BBIbHL7WTQ6qacQHwo1D-1">
          <mxGeometry x="240" y="360" width="40" height="40" as="geometry" />
        </mxCell>
        <mxCell id="NSiir3A2GUsZpsJYYGo2-24" value="" style="rounded=0;whiteSpace=wrap;html=1;fillColor=#e51400;fontColor=#ffffff;strokeColor=#B20000;fillStyle=dots;" vertex="1" parent="BBIbHL7WTQ6qacQHwo1D-1">
          <mxGeometry x="280" y="360" width="40" height="40" as="geometry" />
        </mxCell>
        <mxCell id="NSiir3A2GUsZpsJYYGo2-25" value="3" style="rounded=0;whiteSpace=wrap;html=1;fillColor=#60a917;fontColor=#ffffff;strokeColor=#2D7600;fillStyle=auto;" vertex="1" parent="BBIbHL7WTQ6qacQHwo1D-1">
          <mxGeometry x="320" y="360" width="40" height="40" as="geometry" />
        </mxCell>
        <mxCell id="NSiir3A2GUsZpsJYYGo2-26" value="" style="rounded=0;whiteSpace=wrap;html=1;fillColor=#60a917;fontColor=#ffffff;strokeColor=#2D7600;fillStyle=auto;" vertex="1" parent="BBIbHL7WTQ6qacQHwo1D-1">
          <mxGeometry x="360" y="360" width="40" height="40" as="geometry" />
        </mxCell>
        <mxCell id="NSiir3A2GUsZpsJYYGo2-27" value="" style="rounded=0;whiteSpace=wrap;html=1;fillColor=#0050ef;fontColor=#ffffff;strokeColor=#001DBC;fillStyle=auto;" vertex="1" parent="BBIbHL7WTQ6qacQHwo1D-1">
          <mxGeometry x="400" y="360" width="40" height="40" as="geometry" />
        </mxCell>
        <mxCell id="NSiir3A2GUsZpsJYYGo2-28" value="..." style="rounded=0;whiteSpace=wrap;html=1;fillColor=#0050ef;fontColor=#ffffff;strokeColor=#001DBC;fillStyle=auto;" vertex="1" parent="BBIbHL7WTQ6qacQHwo1D-1">
          <mxGeometry x="440" y="360" width="40" height="40" as="geometry" />
        </mxCell>
      </root>
    </mxGraphModel>
  </diagram>
</mxfile>
